<svg width="50" height="50" viewBox="0 0 50 50" fill="none" xmlns="http://www.w3.org/2000/svg">
<path d="M25 36C13.5 36 8.30002 25.9 8.10002 25.4C8.00002 25.1 8.00002 24.8 8.10002 24.5C8.30002 24.1 13.5 14 25 14C36.5 14 41.7 24.1 41.9 24.6C42 24.9 42 25.2 41.9 25.5C41.7 25.9 36.5 36 25 36ZM10.1 25C11.2 26.9 16 34 25 34C34 34 38.7 26.9 39.9 25C38.8 23.1 34 16 25 16C16 16 11.3 23.1 10.1 25Z" fill="#C1C1C1"/>
<path d="M25 34C20 34 16 30 16 25C16 20 20 16 25 16C30 16 34 20 34 25C34 30 30 34 25 34ZM25 18C21.1 18 18 21.1 18 25C18 28.9 21.1 32 25 32C28.9 32 32 28.9 32 25C32 21.1 28.9 18 25 18Z" fill="#C1C1C1"/>
<path d="M25 30C22.2 30 20 27.8 20 25C20 24.4 20.4 24 21 24C21.6 24 22 24.4 22 25C22 26.7 23.3 28 25 28C26.7 28 28 26.7 28 25C28 23.3 26.7 22 25 22C24.4 22 24 21.6 24 21C24 20.4 24.4 20 25 20C27.8 20 30 22.2 30 25C30 27.8 27.8 30 25 30Z" fill="#C1C1C1"/>
</svg>
